<svg width="68" height="69" viewBox="0 0 68 69" fill="none" xmlns="http://www.w3.org/2000/svg">
<path d="M5.93 65.07C5.28333 65.07 4.69333 64.92 4.16 64.62C3.62667 64.3133 3.20333 63.89 2.89 63.35C2.58333 62.8033 2.43 62.19 2.43 61.51C2.43 60.83 2.58333 60.22 2.89 59.68C3.20333 59.1333 3.62667 58.71 4.16 58.41C4.69333 58.1033 5.28333 57.95 5.93 57.95C6.58333 57.95 7.17667 58.1033 7.71 58.41C8.24333 58.71 8.66333 59.13 8.97 59.67C9.27667 60.21 9.43 60.8233 9.43 61.51C9.43 62.1967 9.27667 62.81 8.97 63.35C8.66333 63.89 8.24333 64.3133 7.71 64.62C7.17667 64.92 6.58333 65.07 5.93 65.07ZM5.93 64.28C6.41667 64.28 6.85333 64.1667 7.24 63.94C7.63333 63.7133 7.94 63.39 8.16 62.97C8.38667 62.55 8.5 62.0633 8.5 61.51C8.5 60.95 8.38667 60.4633 8.16 60.05C7.94 59.63 7.63667 59.3067 7.25 59.08C6.86333 58.8533 6.42333 58.74 5.93 58.74C5.43667 58.74 4.99667 58.8533 4.61 59.08C4.22333 59.3067 3.91667 59.63 3.69 60.05C3.47 60.4633 3.36 60.95 3.36 61.51C3.36 62.0633 3.47 62.55 3.69 62.97C3.91667 63.39 4.22333 63.7133 4.61 63.94C5.00333 64.1667 5.44333 64.28 5.93 64.28ZM11.5213 58.03V62.44C11.5213 63.06 11.6713 63.52 11.9713 63.82C12.278 64.12 12.7013 64.27 13.2413 64.27C13.7747 64.27 14.1913 64.12 14.4913 63.82C14.798 63.52 14.9513 63.06 14.9513 62.44V58.03H15.8613V62.43C15.8613 63.01 15.7447 63.5 15.5113 63.9C15.278 64.2933 14.9613 64.5867 14.5613 64.78C14.168 64.9733 13.7247 65.07 13.2313 65.07C12.738 65.07 12.2913 64.9733 11.8913 64.78C11.498 64.5867 11.1847 64.2933 10.9513 63.9C10.7247 63.5 10.6113 63.01 10.6113 62.43V58.03H11.5213ZM23.1394 58.03L20.5094 65H19.4594L16.8294 58.03H17.7994L19.9894 64.04L22.1794 58.03H23.1394ZM27.8072 65L26.1472 62.15H25.0472V65H24.1372V58.03H26.3872C26.9139 58.03 27.3572 58.12 27.7172 58.3C28.0839 58.48 28.3572 58.7233 28.5372 59.03C28.7172 59.3367 28.8072 59.6867 28.8072 60.08C28.8072 60.56 28.6672 60.9833 28.3872 61.35C28.1139 61.7167 27.7005 61.96 27.1472 62.08L28.8972 65H27.8072ZM25.0472 61.42H26.3872C26.8805 61.42 27.2505 61.3 27.4972 61.06C27.7439 60.8133 27.8672 60.4867 27.8672 60.08C27.8672 59.6667 27.7439 59.3467 27.4972 59.12C27.2572 58.8933 26.8872 58.78 26.3872 58.78H25.0472V61.42ZM34.3412 63.45H31.3012L30.7412 65H29.7812L32.3012 58.07H33.3512L35.8612 65H34.9012L34.3412 63.45ZM34.0812 62.71L32.8212 59.19L31.5612 62.71H34.0812ZM42.2395 60.05C42.0461 59.6433 41.7661 59.33 41.3995 59.11C41.0328 58.8833 40.6061 58.77 40.1195 58.77C39.6328 58.77 39.1928 58.8833 38.7995 59.11C38.4128 59.33 38.1061 59.65 37.8795 60.07C37.6595 60.4833 37.5495 60.9633 37.5495 61.51C37.5495 62.0567 37.6595 62.5367 37.8795 62.95C38.1061 63.3633 38.4128 63.6833 38.7995 63.91C39.1928 64.13 39.6328 64.24 40.1195 64.24C40.7995 64.24 41.3595 64.0367 41.7995 63.63C42.2395 63.2233 42.4961 62.6733 42.5695 61.98H39.7895V61.24H43.5395V61.94C43.4861 62.5133 43.3061 63.04 42.9995 63.52C42.6928 63.9933 42.2895 64.37 41.7895 64.65C41.2895 64.9233 40.7328 65.06 40.1195 65.06C39.4728 65.06 38.8828 64.91 38.3495 64.61C37.8161 64.3033 37.3928 63.88 37.0795 63.34C36.7728 62.8 36.6195 62.19 36.6195 61.51C36.6195 60.83 36.7728 60.22 37.0795 59.68C37.3928 59.1333 37.8161 58.71 38.3495 58.41C38.8828 58.1033 39.4728 57.95 40.1195 57.95C40.8595 57.95 41.5128 58.1333 42.0795 58.5C42.6528 58.8667 43.0695 59.3833 43.3295 60.05H42.2395ZM45.6527 58.77V61.1H48.1927V61.85H45.6527V64.25H48.4927V65H44.7427V58.02H48.4927V58.77H45.6527ZM52.0796 65.07C51.6196 65.07 51.2063 64.99 50.8396 64.83C50.4796 64.6633 50.1963 64.4367 49.9896 64.15C49.7829 63.8567 49.6763 63.52 49.6696 63.14H50.6396C50.6729 63.4667 50.8063 63.7433 51.0396 63.97C51.2796 64.19 51.6263 64.3 52.0796 64.3C52.5129 64.3 52.8529 64.1933 53.0996 63.98C53.3529 63.76 53.4796 63.48 53.4796 63.14C53.4796 62.8733 53.4063 62.6567 53.2596 62.49C53.1129 62.3233 52.9296 62.1967 52.7096 62.11C52.4896 62.0233 52.1929 61.93 51.8196 61.83C51.3596 61.71 50.9896 61.59 50.7096 61.47C50.4363 61.35 50.1996 61.1633 49.9996 60.91C49.8063 60.65 49.7096 60.3033 49.7096 59.87C49.7096 59.49 49.8063 59.1533 49.9996 58.86C50.1929 58.5667 50.4629 58.34 50.8096 58.18C51.1629 58.02 51.5663 57.94 52.0196 57.94C52.6729 57.94 53.2063 58.1033 53.6196 58.43C54.0396 58.7567 54.2763 59.19 54.3296 59.73H53.3296C53.2963 59.4633 53.1563 59.23 52.9096 59.03C52.6629 58.8233 52.3363 58.72 51.9296 58.72C51.5496 58.72 51.2396 58.82 50.9996 59.02C50.7596 59.2133 50.6396 59.4867 50.6396 59.84C50.6396 60.0933 50.7096 60.3 50.8496 60.46C50.9963 60.62 51.1729 60.7433 51.3796 60.83C51.5929 60.91 51.8896 61.0033 52.2696 61.11C52.7296 61.2367 53.0996 61.3633 53.3796 61.49C53.6596 61.61 53.8996 61.8 54.0996 62.06C54.2996 62.3133 54.3996 62.66 54.3996 63.1C54.3996 63.44 54.3096 63.76 54.1296 64.06C53.9496 64.36 53.6829 64.6033 53.3296 64.79C52.9763 64.9767 52.5596 65.07 52.0796 65.07ZM56.0288 65.06C55.8554 65.06 55.7088 65 55.5888 64.88C55.4688 64.76 55.4088 64.6133 55.4088 64.44C55.4088 64.2667 55.4688 64.12 55.5888 64C55.7088 63.88 55.8554 63.82 56.0288 63.82C56.1954 63.82 56.3354 63.88 56.4488 64C56.5688 64.12 56.6288 64.2667 56.6288 64.44C56.6288 64.6133 56.5688 64.76 56.4488 64.88C56.3354 65 56.1954 65.06 56.0288 65.06ZM58.7484 58.03V65H57.8384V58.03H58.7484ZM63.4593 65.07C62.8126 65.07 62.2226 64.92 61.6893 64.62C61.156 64.3133 60.7326 63.89 60.4193 63.35C60.1126 62.8033 59.9593 62.19 59.9593 61.51C59.9593 60.83 60.1126 60.22 60.4193 59.68C60.7326 59.1333 61.156 58.71 61.6893 58.41C62.2226 58.1033 62.8126 57.95 63.4593 57.95C64.1126 57.95 64.706 58.1033 65.2393 58.41C65.7726 58.71 66.1926 59.13 66.4993 59.67C66.806 60.21 66.9593 60.8233 66.9593 61.51C66.9593 62.1967 66.806 62.81 66.4993 63.35C66.1926 63.89 65.7726 64.3133 65.2393 64.62C64.706 64.92 64.1126 65.07 63.4593 65.07ZM63.4593 64.28C63.946 64.28 64.3826 64.1667 64.7693 63.94C65.1626 63.7133 65.4693 63.39 65.6893 62.97C65.916 62.55 66.0293 62.0633 66.0293 61.51C66.0293 60.95 65.916 60.4633 65.6893 60.05C65.4693 59.63 65.166 59.3067 64.7793 59.08C64.3926 58.8533 63.9526 58.74 63.4593 58.74C62.966 58.74 62.526 58.8533 62.1393 59.08C61.7526 59.3067 61.446 59.63 61.2193 60.05C60.9993 60.4633 60.8893 60.95 60.8893 61.51C60.8893 62.0633 60.9993 62.55 61.2193 62.97C61.446 63.39 61.7526 63.7133 62.1393 63.94C62.5326 64.1667 62.9726 64.28 63.4593 64.28Z" fill="white"/>
<circle cx="34" cy="25" r="21.5" stroke="url(#paint0_linear)" stroke-width="7"/>
<defs>
<linearGradient id="paint0_linear" x1="34" y1="7" x2="34" y2="43" gradientUnits="userSpaceOnUse">
<stop stop-color="white"/>
<stop offset="1" stop-color="#DCDCDC"/>
</linearGradient>
</defs>
</svg>
